<?xml version="1.0" encoding="utf-8"?>
<!-- Generator: Adobe Illustrator 23.0.2, SVG Export Plug-In . SVG Version: 6.00 Build 0)  -->
<svg version="1.1" id="Layer_2" xmlns="http://www.w3.org/2000/svg" xmlns:xlink="http://www.w3.org/1999/xlink" x="0px" y="0px"
	 viewBox="0 0 190.4 37.6" style="enable-background:new 0 0 190.4 37.6;" xml:space="preserve">
<style type="text/css">
	.st0{fill:#FDC305;}
	.st1{fill:#F06351;}
	.st2{fill:#111111;}
</style>
<path class="st0" d="M6.1,20.7l0.1-2.3c6.7-0.9,13.4-1.4,20.2-1.3c0,0.6,0,1.2-0.1,1.8c0,0,2.9-1.3,6-1.8
	c-2.4-6.3-8.5-10.8-15.6-10.8c-8.3,0-15.2,6.1-16.5,14.1C2.4,20.5,6.1,20.7,6.1,20.7z M27.2,24.2c-1.2,1.3-1.4,1.2-1.4,3.5v9.2
	c4.5-3,7.4-8.1,7.4-13.9c0-1.1-0.1-2.1-0.3-3.1C31.2,21,28.2,23.1,27.2,24.2z M6.4,25.7c0,0-3.8-1.4-5.2-1.8L0,23.6
	c0.2,6,3.7,11.3,8.7,14L6.4,25.7z"/>
<path class="st1" d="M26.3,17.1c0.1-8.5-1.4-16.5-1.4-16.5S24.7-0.6,24,0.4c-0.7,1.1-1.2,3.9-1.2,3.9C15.4,3.9,10,4.6,10,4.6
	C9.2,2,7.9,0.8,7.2,1C6.5,1.3,6.5,4.4,6.5,4.4L6.1,18.5C12.8,17.5,19.6,17.1,26.3,17.1z"/>
<path d="M12.4,14c0-0.1,1,0.7,1.4,0.9s0.6,0.4,0.6,0.6c0,0.2-0.3,0.3-0.6,0.3s-0.9-0.1-1-0.3H14C14.1,15.6,12.7,14.5,12.4,14z
	 M19.9,14.1c0,0-1,1.3-1.1,1.3c0,0.1-0.2,0.3,0.2,0.3s1.1-0.2,1.2-0.3s0.1-0.2-0.1-0.2s-0.7,0-1,0.1L19.9,14.1
	C19.9,14.1,20,14,19.9,14.1z M16.8,20.2c0,0,0.8-0.4,1.1-1c0.3-0.7,0-0.9-0.4-1c-0.5-0.1-1.3,0-1.7,0.3c-0.4,0.4-0.3,0.7-0.1,1
	C15.9,19.7,16.5,20.1,16.8,20.2z"/>
<path class="st1" d="M16.3,21.5c0,0-0.2,0.4-0.5,0.6c-0.2,0.2-0.6,0.4-1,0.4c-0.6,0-1.1-0.2-1.5-0.4c-0.2-0.1-0.4-0.3-0.5-0.4
	c-0.2-0.2-0.4-0.3-0.4-0.3s0.7,4.1,2.6,4.7c1.8,0.6,2.1-0.7,2.2-1.1c0-0.3,0-2.1-0.8-3.2C16.5,21.4,16.4,21.6,16.3,21.5z"/>
<path d="M14.7,22.6c-1.3,0-2.3-1.4-2.3-1.4V21h0.2c0,0,1,1.3,2.1,1.3c0.6,0,1.1-0.3,1.6-1l0.1-0.2l0.1,0.2c0,0,0.4,0.8,1,0.8
	c0.5,0,1.1-0.4,1.6-1.3c0-0.1,0.1-0.1,0.2,0c0.1,0,0.1,0.1,0,0.2c-0.6,1-1.3,1.4-1.9,1.4s-0.9-0.5-1.1-0.8
	C15.9,22.3,15.3,22.6,14.7,22.6z"/>
<path class="st1" d="M26.2,18.9c0,0-2.5,2.2-5.1,5.2S15.9,29,15.9,29c-0.2-0.5-1.6-1.5-1.6-1.5s-3.1-2.1-5.2-3.8
	c-1.2-1-2.3-2.2-3.1-3c-0.3,0-1.1-0.1-2-0.1c4.7,7,12,8.8,12,8.8c0.9-0.1,3.3-1.9,5.1-3.3c1.8-1.4,4.8-4.5,5.9-5.9
	c0.6-0.7,0.9-1.4,1.1-2C27,18.6,26.2,18.9,26.2,18.9z"/>
<path class="st2" d="M91.2,26.8c-0.8-1-1.2-2.5-1.2-4.4v-6.3c0-1.9,0.4-3.4,1.2-4.4c0.8-1,2.2-1.5,4.2-1.5c1.9,0,3.2,0.4,4,1.3
	c0.8,0.9,1.2,2.1,1.2,3.8v1.5h-4V15c0-0.7-0.1-1.2-0.2-1.6c-0.1-0.3-0.5-0.5-1-0.5s-1,0.2-1.1,0.6c-0.2,0.4-0.3,0.9-0.3,1.6v8.3
	c0,0.7,0.1,1.2,0.3,1.6c0.2,0.4,0.5,0.6,1.1,0.6c0.5,0,0.9-0.2,1-0.6c0.2-0.4,0.2-0.9,0.2-1.6v-1.8h3.9v1.5c0,1.6-0.4,2.9-1.2,3.9
	c-0.8,0.9-2.1,1.4-4,1.4C93.4,28.3,92,27.8,91.2,26.8z M105.2,10.4h4.5L113,28h-3.6l-0.6-3.7h-2.6l-0.6,3.7h-3.7L105.2,10.4z
	 M108.4,22l-0.9-6.9l-0.9,6.9H108.4z M115.8,13.3h-2.7v-2.9h9.3v2.9h-2.7V28h-4V13.3H115.8z M129.5,10.4h6.9v1.8H132V18h3.6v1.7H132
	v6.4h4.5v1.8h-7V10.4z M138.5,10.4h1.7l5.1,11.7V10.4h2.1V28h-1.6l-5.1-12v12h-2.1V10.4H138.5z M149.8,10.4h6.9v1.8h-4.4V18h3.6v1.7
	h-3.6v6.4h4.5v1.8h-7C149.8,27.9,149.8,10.4,149.8,10.4z M158.8,10.4h3.6c1.8,0,3.1,0.4,4,1.1c0.9,0.7,1.3,1.9,1.3,3.6
	c0,2.3-0.7,3.6-2.2,4.1L168,28h-2.4l-2.3-8.3h-1.9V28h-2.5L158.8,10.4L158.8,10.4z M162.2,18c1.1,0,1.8-0.2,2.3-0.6
	c0.5-0.4,0.7-1.2,0.7-2.3c0-0.7-0.1-1.3-0.2-1.7c-0.1-0.4-0.4-0.7-0.9-0.9c-0.4-0.2-1-0.3-1.7-0.3h-1.1V18
	C161.3,18,162.2,18,162.2,18z M170.8,26.7c-0.7-1-1.1-2.5-1.1-4.5v-5.8c0-1.4,0.1-2.5,0.4-3.4c0.3-0.9,0.8-1.5,1.5-2
	s1.7-0.7,2.9-0.7c1.6,0,2.8,0.4,3.6,1.2c0.7,0.8,1.1,2.1,1.1,3.9v0.7h-2.3v-0.6c0-0.8-0.1-1.5-0.2-1.9c-0.1-0.5-0.3-0.8-0.7-1
	c-0.3-0.3-0.8-0.4-1.4-0.4c-0.7,0-1.2,0.2-1.5,0.5c-0.3,0.3-0.6,0.7-0.7,1.2s-0.1,1.2-0.1,2.1v6.5c0,1.3,0.2,2.3,0.5,2.9
	c0.3,0.6,1,0.9,1.9,0.9s1.6-0.3,1.9-1c0.3-0.6,0.5-1.7,0.5-3.1V21h-2.3v-1.7h4.5V28h-1.6l-0.2-2c-0.6,1.5-1.6,2.2-3.2,2.2
	S171.5,27.7,170.8,26.7L170.8,26.7z M184.3,21.8l-3.9-11.4h2.3l2.7,8.5l2.7-8.5h2.3l-3.8,11.4V28h-2.4v-6.2H184.3z"/>
</svg>
